<svg xmlns="http://www.w3.org/2000/svg" viewBox="0 0 512 512" width="512" height="512">
  <defs>
    <!-- Neon Drop gradient -->
    <radialGradient id="neonGradient" cx="50%" cy="30%" r="80%">
      <stop offset="0%" style="stop-color:#00d4ff;stop-opacity:1" />
      <stop offset="40%" style="stop-color:#8A2BE2;stop-opacity:1" />
      <stop offset="100%" style="stop-color:#000000;stop-opacity:1" />
    </radialGradient>
    
    <!-- Block gradient -->
    <linearGradient id="blockGradient" x1="0%" y1="0%" x2="100%" y2="100%">
      <stop offset="0%" style="stop-color:#00ffff;stop-opacity:1" />
      <stop offset="50%" style="stop-color:#0088ff;stop-opacity:1" />
      <stop offset="100%" style="stop-color:#0044ff;stop-opacity:1" />
    </linearGradient>
  </defs>
  
  <!-- Background circle -->
  <circle cx="256" cy="256" r="240" fill="url(#neonGradient)" stroke="#00d4ff" stroke-width="8"/>
  
  <!-- Tetris-style blocks forming "N" -->
  <!-- Left vertical line -->
  <rect x="120" y="150" width="40" height="40" fill="url(#blockGradient)" stroke="#fff" stroke-width="2"/>
  <rect x="120" y="200" width="40" height="40" fill="url(#blockGradient)" stroke="#fff" stroke-width="2"/>
  <rect x="120" y="250" width="40" height="40" fill="url(#blockGradient)" stroke="#fff" stroke-width="2"/>
  <rect x="120" y="300" width="40" height="40" fill="url(#blockGradient)" stroke="#fff" stroke-width="2"/>
  
  <!-- Diagonal -->
  <rect x="170" y="200" width="40" height="40" fill="url(#blockGradient)" stroke="#fff" stroke-width="2"/>
  <rect x="220" y="250" width="40" height="40" fill="url(#blockGradient)" stroke="#fff" stroke-width="2"/>
  
  <!-- Right vertical line -->
  <rect x="270" y="150" width="40" height="40" fill="url(#blockGradient)" stroke="#fff" stroke-width="2"/>
  <rect x="270" y="200" width="40" height="40" fill="url(#blockGradient)" stroke="#fff" stroke-width="2"/>
  <rect x="270" y="250" width="40" height="40" fill="url(#blockGradient)" stroke="#fff" stroke-width="2"/>
  <rect x="270" y="300" width="40" height="40" fill="url(#blockGradient)" stroke="#fff" stroke-width="2"/>
  
  <!-- Drop effect -->
  <circle cx="256" cy="380" r="20" fill="#00d4ff" opacity="0.7"/>
  <circle cx="256" cy="390" r="15" fill="#00d4ff" opacity="0.5"/>
  <circle cx="256" cy="400" r="10" fill="#00d4ff" opacity="0.3"/>
</svg>
